<?xml version="1.0" encoding="UTF-8" standalone="no"?>
<!-- <svg class="w-5 h-5 text-white"
        viewBox="0 0 24 24"
        fill="none">
<path d="M12 4.75L19.25 9L12 13.25L4.75 9L12 4.75Z"
        stroke="currentColor"
        stroke-width="1.5"
        stroke-linecap="round"
        stroke-linejoin="round"></path>
<path d="M9.25 12L4.75 15L12 19.25L19.25 15L14.6722 12"
        stroke="currentColor"
        stroke-width="1.5"
        stroke-linecap="round"
        stroke-linejoin="round"></path>
</svg> -->

<svg
   class="h-5 w-5 text-white"
   viewBox="0 0 24 24"
   fill="currentColor"
   version="1.1"
   id="svg2"
   sodipodi:docname="logo.svg"
   inkscape:version="1.4.2 (2aeb623e1d, 2025-05-12)"
   width="24"
   height="24"
   inkscape:export-filename="../fbdb2c51/favicon.png"
   inkscape:export-xdpi="96"
   inkscape:export-ydpi="96"
   xmlns:inkscape="http://www.inkscape.org/namespaces/inkscape"
   xmlns:sodipodi="http://sodipodi.sourceforge.net/DTD/sodipodi-0.dtd"
   xmlns="http://www.w3.org/2000/svg"
   xmlns:svg="http://www.w3.org/2000/svg">
  <defs
     id="defs2">
    <inkscape:path-effect
       effect="fillet_chamfer"
       id="path-effect29-1"
       is_visible="true"
       lpeversion="1"
       nodesatellites_param="F,0,0,1,0,0,0,1 @ F,0,0,1,0,0,0,1 @ F,0,0,1,0,0,0,1 @ F,0,0,1,0,0,0,1 @ F,0,0,1,0,0,0,1 @ F,0,0,1,0,0,0,1 @ F,0,0,1,0,0,0,1 @ F,0,0,1,0,0,0,1 @ F,0,0,1,0,0,0,1 @ F,0,0,1,0,0,0,1 @ F,0,0,1,0,0,0,1 @ F,0,0,1,0,0,0,1 @ F,0,0,1,0,0,0,1 @ F,0,0,1,0,0,0,1 @ F,0,0,1,0,0,0,1 @ F,0,0,1,0,0,0,1 @ F,0,0,1,0,0,0,1 @ F,0,0,1,0,0,0,1 @ F,0,0,1,0,0,0,1 @ F,0,0,1,0,0,0,1 @ F,0,0,1,0,0,0,1 @ F,0,0,1,0,0,0,1 @ F,0,0,1,0,0,0,1 @ F,0,0,1,0,0,0,1 @ F,0,0,1,0,0,0,1 @ F,0,0,1,0,0.81130777,0,1 @ F,0,0,1,0,0,0,1 @ F,0,0,1,0,0,0,1 @ F,0,0,1,0,0,0,1 @ F,0,0,1,0,0,0,1 @ F,0,0,1,0,0.44747333,0,1 @ F,0,0,1,0,0.41936734,0,1 @ F,0,0,1,0,0,0,1 @ F,0,0,1,0,0,0,1 @ F,0,0,1,0,0,0,1 @ F,0,0,1,0,0,0,1 @ F,0,0,1,0,0,0,1 @ F,0,0,1,0,0,0,1 @ F,0,0,1,0,0,0,1 @ F,0,0,1,0,0,0,1 @ F,0,0,1,0,0,0,1 @ F,0,0,1,0,0,0,1 @ F,0,0,1,0,0,0,1 @ F,0,0,1,0,0,0,1 @ F,0,0,1,0,0,0,1 @ F,0,0,1,0,1.1348972,0,1 @ F,0,0,1,0,0,0,1 | F,0,0,1,0,0,0,1 @ F,0,0,1,0,0,0,1 @ F,0,0,1,0,0,0,1 @ F,0,0,1,0,0,0,1 @ F,0,0,1,0,0,0,1 @ F,0,0,1,0,0,0,1 @ F,0,0,1,0,0,0,1 @ F,0,0,1,0,0,0,1 @ F,0,0,1,0,0,0,1 @ F,0,0,1,0,0,0,1 @ F,0,0,1,0,0,0,1 @ F,0,0,1,0,0,0,1 @ F,0,0,1,0,0.44752418,0,1 @ F,0,0,1,0,0.42997612,0,1 @ F,0,0,1,0,0,0,1 @ F,0,0,1,0,0,0,1 @ F,0,0,1,0,0,0,1 @ F,0,0,1,0,0,0,1 @ F,0,0,1,0,0.66706761,0,1 @ F,0,0,1,0,0,0,1 @ F,0,0,1,0,0,0,1 @ F,0,0,1,0,0,0,1 @ F,0,0,1,0,0,0,1 @ F,0,0,1,0,0,0,1 @ F,0,0,1,0,0,0,1 @ F,0,0,1,0,0,0,1 @ F,0,0,1,0,0,0,1 @ F,0,0,1,0,0,0,1 @ F,0,0,1,0,0,0,1 @ F,0,0,1,0,0,0,1 | F,0,0,1,0,0,0,1 @ F,0,0,1,0,0,0,1 @ F,0,0,1,0,0,0,1 @ F,0,0,1,0,0,0,1 @ F,0,0,1,0,0,0,1 @ F,0,0,1,0,0,0,1 @ F,0,0,1,0,0,0,1 @ F,0,0,1,0,0,0,1 @ F,0,0,1,0,0,0,1 @ F,0,0,1,0,0,0,1"
       radius="0"
       unit="px"
       method="auto"
       mode="F"
       chamfer_steps="1"
       flexible="false"
       use_knot_distance="true"
       apply_no_radius="true"
       apply_with_radius="true"
       only_selected="false"
       hide_knots="false" />
    <inkscape:path-effect
       effect="fillet_chamfer"
       id="path-effect33-9"
       is_visible="true"
       lpeversion="1"
       nodesatellites_param="F,0,0,1,0,1.2141518,0,1 @ F,0,0,1,0,0,0,1 @ F,0,0,1,0,0,0,1 @ F,0,0,1,0,0,0,1 @ F,0,0,1,0,0,0,1 @ F,0,0,1,0,0,0,1 @ F,0,0,1,0,0,0,1 @ F,0,0,1,0,0,0,1 @ F,0,0,1,0,0,0,1 @ F,0,0,1,0,0,0,1 @ F,0,0,1,0,0,0,1 @ F,0,0,1,0,0,0,1 @ F,0,0,1,0,0,0,1 @ F,0,0,1,0,1.2141518,0,1 @ F,0,0,1,0,0,0,1 @ F,0,0,1,0,0,0,1 @ F,0,0,1,0,0,0,1 @ F,0,0,1,0,0,0,1 @ F,0,0,1,0,0,0,1 @ F,0,0,1,0,0,0,1 @ F,0,0,1,0,0,0,1 @ F,0,0,1,0,0,0,1 @ F,0,0,1,0,0,0,1 @ F,0,0,1,0,0,0,1 @ F,0,0,1,0,0,0,1 @ F,0,0,1,0,0,0,1"
       radius="0"
       unit="px"
       method="auto"
       mode="F"
       chamfer_steps="1"
       flexible="false"
       use_knot_distance="true"
       apply_no_radius="true"
       apply_with_radius="true"
       only_selected="false"
       hide_knots="false" />
    <inkscape:path-effect
       effect="fillet_chamfer"
       id="path-effect32-8"
       is_visible="true"
       lpeversion="1"
       nodesatellites_param="F,0,0,1,0,1.3870097,0,1 @ F,0,0,1,0,0,0,1 @ F,0,0,1,0,0,0,1 @ F,0,0,1,0,0,0,1 @ F,0,0,1,0,0,0,1 @ F,0,0,1,0,0,0,1 @ F,0,0,1,0,0,0,1 @ F,0,0,1,0,0,0,1 @ F,0,0,1,0,0,0,1 @ F,0,0,1,0,0,0,1 @ F,0,0,1,0,0,0,1 @ F,0,1,1,0,1.3870097,0,1 @ F,0,0,1,0,0.186035,0,1 @ F,0,0,1,0,0,0,1 @ F,0,0,1,0,0,0,1 @ F,0,0,1,0,0,0,1 @ F,0,0,1,0,0,0,1 @ F,0,0,1,0,0,0,1 @ F,0,0,1,0,0,0,1 @ F,0,0,1,0,0,0,1 @ F,0,0,1,0,0,0,1 @ F,0,0,1,0,1.6462952,0,1 @ F,0,0,1,0,0,0,1 @ F,0,0,1,0,0,0,1 @ F,0,0,1,0,0,0,1 @ F,0,0,1,0,0,0,1"
       radius="0"
       unit="px"
       method="auto"
       mode="F"
       chamfer_steps="1"
       flexible="false"
       use_knot_distance="true"
       apply_no_radius="true"
       apply_with_radius="true"
       only_selected="false"
       hide_knots="false" />
  </defs>
  <sodipodi:namedview
     id="namedview2"
     pagecolor="#ffffff"
     bordercolor="#000000"
     borderopacity="0.25"
     inkscape:showpageshadow="2"
     inkscape:pageopacity="0.0"
     inkscape:pagecheckerboard="0"
     inkscape:deskcolor="#d1d1d1"
     inkscape:zoom="16.68772"
     inkscape:cx="33.617534"
     inkscape:cy="20.46415"
     inkscape:window-width="1850"
     inkscape:window-height="1016"
     inkscape:window-x="0"
     inkscape:window-y="0"
     inkscape:window-maximized="1"
     inkscape:current-layer="svg2"
     showgrid="false" />
  <path
     id="text1-4-9"
     style="-inkscape-font-specification:'Chillit, Normal';fill:#3d8a90;stroke-width:0.218203"
     d="m 81.939185,56.437382 v 8.408789 c -1.103807,-0.64492 -2.344046,-0.967383 -3.720703,-0.967383 -2.058784,0 -3.813725,0.72554 -5.264795,2.176612 -1.451072,1.45107 -2.176612,3.206011 -2.176612,5.264795 v 3.720703 c 0,2.058785 0.72554,3.813723 2.176612,5.264795 1.45107,1.45107 3.206011,2.176611 5.264795,2.176611 2.058785,0 3.813724,-0.725541 5.264795,-2.176611 1.451071,-1.451072 2.176611,-3.20601 2.176611,-5.264795 0,0 -0.0036,-0.249121 0,-0.490926 0.0052,-0.349466 1.039661,-0.330183 1.048515,0 0.0031,0.117094 0,0.509013 0,0.509013 0,2.100807 0.725544,3.813732 2.176611,5.264795 1.451064,1.451067 3.206018,2.176611 5.264795,2.176611 2.058777,0 3.813727,-0.725544 5.264795,-2.176611 1.451076,-1.451063 2.176616,-3.206018 2.176616,-5.264795 0,0 0.003,-0.333172 0,-0.499712 -0.005,-0.261147 1.05356,-0.275157 1.04851,0 -0.003,0.166543 0,0.499712 0,0.499712 0,2.058785 0.72554,3.813724 2.17661,5.264795 1.45107,1.451071 3.20601,2.176611 5.2648,2.176611 2.05877,0 3.81372,-0.72554 5.26479,-2.176611 1.0418,-1.041794 1.71152,-2.232425 2.00918,-3.571876 l -1.69292,-1.692919 h -1.04904 c -0.44808,0 -0.80055,0.368035 -0.89227,0.805803 -0.14477,0.69093 -0.48365,1.302896 -1.01665,1.835896 -0.71933,0.719334 -1.5937,1.079004 -2.62309,1.079004 -1.0294,0 -1.90997,-0.35967 -2.6417,-1.079004 -0.71934,-0.731737 -1.07901,-1.612306 -1.07901,-2.641699 l -0.005,-1.014971 a 0.4496203,0.4496203 44.862877 0 0 -0.44961,-0.447468 l -7.600865,0 c -0.23161,0 -0.421254,0.187748 -0.423624,0.419346 -0.0036,0.347693 -0.0072,0.695387 -0.01073,1.04308 0,1.029389 -0.36587,1.909962 -1.097607,2.641699 -0.719331,0.71933 -1.593708,1.079004 -2.623096,1.079004 -1.029389,0 -1.909967,-0.359674 -2.641699,-1.079004 -0.719336,-0.731737 -1.079004,-1.61231 -1.079004,-2.641699 v -0.933158 c 0,-0.295456 -0.239514,-0.53497 -0.53497,-0.53497 h -1.341401 v -0.0036 h -2.292884 c -0.331475,0 -0.600189,-0.268714 -0.600189,-0.600189 V 69.764866 65.942489 59.432631 A 2.7398842,2.7398842 67.5 0 0 84.857394,57.49524 l -1.057858,-1.057858 z m 12.210624,7.459493 c -2.058777,0 -3.813731,0.725549 -5.264795,2.176612 -1.451067,1.451067 -2.176611,3.206017 -2.176611,5.264794 v 0.798891 c 0,0.271146 0.219807,0.490953 0.490953,0.490953 h 2.763932 c 0.257264,0 0.465818,-0.208554 0.465818,-0.465818 v -0.824026 c 0,-1.029388 0.359668,-1.903765 1.079004,-2.623095 0.731732,-0.731738 1.61231,-1.097608 2.641699,-1.097608 1.029388,0 1.903765,0.36587 2.623096,1.097608 0.731737,0.71933 1.097607,1.593707 1.097607,2.623095 7.36e-4,0.301455 -0.0011,0.602903 -0.0034,0.904348 -0.0018,0.247152 0.197027,0.447508 0.444188,0.447508 h 7.590714 c 0.23747,0 0.44236,-0.192179 0.4483,-0.429559 0.008,-0.307307 0.006,-0.615009 0.0101,-0.922294 0,-1.029388 0.35967,-1.903765 1.07901,-2.623095 0.73173,-0.731738 1.6123,-1.097608 2.6417,-1.097608 1.02939,0 1.90376,0.36587 2.62309,1.097608 0.56893,0.559279 0.91669,1.212285 1.04327,1.959002 0.0615,0.362818 0.353,0.664093 0.72141,0.664093 h 1.19328 l 1.69292,-1.692919 c -0.29766,-1.339442 -0.96738,-2.530085 -2.00918,-3.571875 -1.45107,-1.451063 -3.20606,-2.176612 -5.26479,-2.176612 -2.05879,0 -3.81373,0.725549 -5.2648,2.176612 -1.45107,1.451067 -2.17661,3.206017 -2.17661,5.264794 0,0 -0.007,0.259613 0,0.389124 0.0191,0.345209 -1.05356,0.331199 -1.04851,0 0.002,-0.129693 0,-0.389124 0,-0.389124 0,-2.058777 -0.72554,-3.813727 -2.176618,-5.264794 -1.451068,-1.451063 -3.206018,-2.176612 -5.264795,-2.176612 z m -15.931327,3.702617 c 1.029393,0 1.903761,0.36587 2.623095,1.097607 0.731738,0.719334 1.097608,1.593704 1.097608,2.623096 v 3.720703 c 0,1.029392 -0.36587,1.909962 -1.097608,2.641699 -0.719334,0.719334 -1.593702,1.079004 -2.623095,1.079004 -1.029392,0 -1.909962,-0.35967 -2.6417,-1.079004 -0.719334,-0.731737 -1.079003,-1.612307 -1.079003,-2.641699 v -3.720703 c 0,-1.029392 0.359669,-1.903762 1.079003,-2.623096 0.731738,-0.731737 1.612308,-1.097607 2.6417,-1.097607 z"
     sodipodi:nodetypes="scssssssscsccsssssssssscccsscccccsscscccccccccsssccssscscccccscccsssccscssscsssscsssscssss"
     transform="matrix(0.90171258,0,0,0.90171258,-60.301865,-50.598528)"
     inkscape:path-effect="#path-effect29-1"
     inkscape:original-d="m 81.939185,56.437382 v 8.408789 c -1.103807,-0.64492 -2.344046,-0.967383 -3.720703,-0.967383 -2.058784,0 -3.813725,0.72554 -5.264795,2.176612 -1.451072,1.45107 -2.176612,3.206011 -2.176612,5.264795 v 3.720703 c 0,2.058785 0.72554,3.813723 2.176612,5.264795 1.45107,1.45107 3.206011,2.176611 5.264795,2.176611 2.058785,0 3.813724,-0.725541 5.264795,-2.176611 1.451071,-1.451072 2.176611,-3.20601 2.176611,-5.264795 0,0 -0.0036,-0.249121 0,-0.490926 0.0052,-0.349466 1.039661,-0.330183 1.048515,0 0.0031,0.117094 0,0.509013 0,0.509013 0,2.100807 0.725544,3.813732 2.176611,5.264795 1.451064,1.451067 3.206018,2.176611 5.264795,2.176611 2.058777,0 3.813727,-0.725544 5.264795,-2.176611 1.451076,-1.451063 2.176616,-3.206018 2.176616,-5.264795 0,0 0.003,-0.333172 0,-0.499712 -0.005,-0.261147 1.05356,-0.275157 1.04851,0 -0.003,0.166543 0,0.499712 0,0.499712 0,2.058785 0.72554,3.813724 2.17661,5.264795 1.45107,1.451071 3.20601,2.176611 5.2648,2.176611 2.05877,0 3.81372,-0.72554 5.26479,-2.176611 1.0418,-1.041794 1.71152,-2.232425 2.00918,-3.571876 l -1.69292,-1.692919 h -1.86035 c 0,1.029393 -0.36587,1.909962 -1.09761,2.641699 -0.71933,0.719334 -1.5937,1.079004 -2.62309,1.079004 -1.0294,0 -1.90997,-0.35967 -2.6417,-1.079004 -0.71934,-0.731737 -1.07901,-1.612306 -1.07901,-2.641699 l -0.007,-1.462439 h -8.467702 c -0.0049,0.487476 -0.01,0.974951 -0.01499,1.462426 0,1.029389 -0.36587,1.909962 -1.097607,2.641699 -0.719331,0.71933 -1.593708,1.079004 -2.623096,1.079004 -1.029389,0 -1.909967,-0.359674 -2.641699,-1.079004 -0.719336,-0.731737 -1.079004,-1.61231 -1.079004,-2.641699 v -0.933158 c 0,-0.295456 -0.239514,-0.53497 -0.53497,-0.53497 h -1.341401 v -0.0036 h -2.292884 c -0.331475,0 -0.600189,-0.268714 -0.600189,-0.600189 v -3.222189 -3.822377 -7.644755 l -1.860352,-1.860352 z m 12.210624,7.459493 c -2.058777,0 -3.813731,0.725549 -5.264795,2.176612 -1.451067,1.451067 -2.176611,3.206017 -2.176611,5.264794 v 0.798891 c 0,0.271146 0.219807,0.490953 0.490953,0.490953 h 2.763932 c 0.257264,0 0.465818,-0.208554 0.465818,-0.465818 v -0.824026 c 0,-1.029388 0.359668,-1.903765 1.079004,-2.623095 0.731732,-0.731738 1.61231,-1.097608 2.641699,-1.097608 1.029388,0 1.903765,0.36587 2.623096,1.097608 0.731737,0.71933 1.097607,1.593707 1.097607,2.623095 0.0011,0.450629 -0.0036,0.901242 -0.0067,1.351856 h 8.468218 c 0.0287,-0.449806 0.0226,-0.901279 0.0284,-1.351853 0,-1.029388 0.35967,-1.903765 1.07901,-2.623095 0.73173,-0.731738 1.6123,-1.097608 2.6417,-1.097608 1.02939,0 1.90376,0.36587 2.62309,1.097608 0.73174,0.71933 1.09761,1.593707 1.09761,2.623095 h 1.86035 l 1.69292,-1.692919 c -0.29766,-1.339442 -0.96738,-2.530085 -2.00918,-3.571875 -1.45107,-1.451063 -3.20606,-2.176612 -5.26479,-2.176612 -2.05879,0 -3.81373,0.725549 -5.2648,2.176612 -1.45107,1.451067 -2.17661,3.206017 -2.17661,5.264794 0,0 -0.007,0.259613 0,0.389124 0.0191,0.345209 -1.05356,0.331199 -1.04851,0 0.002,-0.129693 0,-0.389124 0,-0.389124 0,-2.058777 -0.72554,-3.813727 -2.176618,-5.264794 -1.451068,-1.451063 -3.206018,-2.176612 -5.264795,-2.176612 z m -15.931327,3.702617 c 1.029393,0 1.903761,0.36587 2.623095,1.097607 0.731738,0.719334 1.097608,1.593704 1.097608,2.623096 v 3.720703 c 0,1.029392 -0.36587,1.909962 -1.097608,2.641699 -0.719334,0.719334 -1.593702,1.079004 -2.623095,1.079004 -1.029392,0 -1.909962,-0.35967 -2.6417,-1.079004 -0.719334,-0.731737 -1.079003,-1.612307 -1.079003,-2.641699 v -3.720703 c 0,-1.029392 0.359669,-1.903762 1.079003,-2.623096 0.731738,-0.731737 1.612308,-1.097607 2.6417,-1.097607 z" />
  <rect
     style="fill:#ffffff"
     id="rect1"
     width="10.72645"
     height="17.977291"
     x="17.67767"
     y="6.0523548" />
</svg>
